<!DOCTYPE svg PUBLIC "-//W3C//DTD SVG 1.1//EN" "http://www.w3.org/Graphics/SVG/1.1/DTD/svg11.dtd">
<!-- Uploaded to: SVG Repo, www.svgrepo.com, Transformed by: SVG Repo Mixer Tools -->
<svg width="220px" height="220px" viewBox="-2.4 -2.4 28.80 28.80" fill="none" xmlns="http://www.w3.org/2000/svg" transform="matrix(1, 0, 0, 1, 0, 0)rotate(0)" stroke="#000000">
<g id="SVGRepo_bgCarrier" stroke-width="0" transform="translate(0.120000000000001,0.120000000000001), scale(0.99)">
<path transform="translate(-2.4, -2.4), scale(1.7999999999999998)" fill="#7eece4" d="M9.166.33a2.25 2.25 0 00-2.332 0l-5.25 3.182A2.25 2.25 0 00.5 5.436v5.128a2.25 2.25 0 001.084 1.924l5.25 3.182a2.25 2.25 0 002.332 0l5.25-3.182a2.25 2.25 0 001.084-1.924V5.436a2.25 2.25 0 00-1.084-1.924L9.166.33z" strokewidth="0"/>
</g>
<g id="SVGRepo_tracerCarrier" stroke-linecap="round" stroke-linejoin="round" stroke="#CCCCCC" stroke-width="0.144"/>
<g id="SVGRepo_iconCarrier"> <path d="M9.49997 12.4L5 17.7999" stroke="#333333" stroke-width="1.8" stroke-linecap="round" stroke-linejoin="round"/> <path d="M9.49997 12.4L5 7" stroke="#333333" stroke-width="1.8" stroke-linecap="round" stroke-linejoin="round"/> <line x1="18" y1="18" x2="10" y2="18" stroke="#333333" stroke-width="1.8" stroke-linecap="round" stroke-linejoin="round"/> </g>
</svg>